<svg width="160" height="65" viewBox="0 0 160 65" fill="none" xmlns="http://www.w3.org/2000/svg">
<path d="M0 12C0 5.37259 5.37258 0 12 0H147.902C154.529 0 159.902 5.37258 159.902 12V52.2386C159.902 58.866 154.529 64.2386 147.902 64.2386H12C5.37257 64.2386 0 58.8661 0 52.2386V12Z" fill="white"/>
<path fill-rule="evenodd" clip-rule="evenodd" d="M27.443 6.9669C27.9312 6.87649 28.3497 6.79899 28.5124 6.77574C28.7565 6.74087 29.7504 6.68856 30.7443 6.67113C31.7207 6.67113 33.133 6.74087 33.8653 6.84549C34.6151 6.95011 35.8879 7.22908 36.7074 7.45575C37.5269 7.69986 38.8521 8.20551 39.6716 8.5891C40.4911 8.9727 41.9034 9.7922 42.8101 10.385C43.7168 10.9953 45.0768 12.1112 45.8091 12.861C46.5589 13.6282 47.483 14.6743 47.8666 15.1974C48.2676 15.7205 48.8779 16.662 49.2266 17.2897C49.5753 17.9174 50.0984 19.0159 50.4122 19.7308C50.7087 20.4457 51.1794 21.9801 51.4235 23.1309C51.8943 25.2232 51.8943 25.2406 51.8943 32.1453C51.8769 37.3239 51.8071 39.4162 51.6328 40.3403C51.4933 41.0378 51.2143 42.206 51.0051 42.9209C50.7958 43.6358 50.3076 44.8912 49.924 45.7107C49.523 46.5302 48.8256 47.7856 48.3373 48.5005C47.8666 49.2153 46.6809 50.5928 45.7045 51.5518C44.7281 52.5108 43.4029 53.6616 42.7229 54.0975C42.0603 54.5508 40.9444 55.1785 40.2818 55.5098C39.6193 55.8585 38.4336 56.3293 37.6664 56.5908C36.8992 56.8524 35.6089 57.1662 34.7894 57.3057C33.9699 57.4452 32.2961 57.5673 31.0407 57.5673C29.7853 57.5673 28.1114 57.4452 27.2919 57.3057C26.4724 57.1662 25.3042 56.8698 24.6765 56.678C24.0488 56.4688 22.8806 55.9806 22.0611 55.5795C21.2416 55.1785 20.021 54.4985 19.3585 54.0452C18.6959 53.6092 17.5102 52.6154 16.743 51.8656C15.9758 51.1159 14.9297 49.9651 14.424 49.2851C13.9184 48.6051 13.0814 47.2102 12.5584 46.1466C12.0353 45.083 11.3901 43.5137 11.146 42.6593C10.6774 41.1148 10.6753 41.0039 10.5205 33.1803L10.5183 33.0695C10.3788 26.0601 10.3788 24.8396 10.6229 23.4273C10.7799 22.5555 11.2158 21.0211 11.5994 20.0272C11.983 19.0508 12.6978 17.5862 13.1861 16.7667C13.6917 15.9472 14.5984 14.6918 15.2086 13.9769C15.8015 13.262 16.7605 12.2681 17.301 11.7974C17.8589 11.3091 18.8179 10.5768 19.4456 10.1584C20.0733 9.73989 21.0846 9.14706 21.7123 8.83321C22.34 8.5368 23.4036 8.06602 24.0662 7.82191C24.7288 7.57781 25.9144 7.24652 26.6816 7.10703C26.9374 7.06053 27.1989 7.0121 27.443 6.9669ZM29.2273 9.23446C28.896 9.28677 28.0242 9.44369 27.3093 9.58318C26.577 9.72267 25.4785 10.0365 24.8508 10.2632C24.2231 10.4899 23.1246 10.9955 22.4097 11.3791C21.6948 11.7627 20.5266 12.5299 19.8117 13.0704C19.0969 13.6109 18.0333 14.6222 17.4579 15.2848C16.8825 15.9474 16.0978 17.011 15.6968 17.6387C15.2958 18.2664 14.7901 19.1731 14.5635 19.6438C14.3542 20.1321 13.9881 21.0736 13.744 21.7362C13.5173 22.3988 13.2209 23.6193 13.0814 24.4388C12.8721 25.5721 12.8198 27.4727 12.8198 32.3722C12.8198 37.3764 12.8721 39.1375 13.0814 40.2185C13.2209 40.9857 13.5522 42.2062 13.8137 42.9211C14.0927 43.6534 14.7029 44.9437 15.1737 45.7981C15.6619 46.635 16.5163 47.8904 17.0917 48.5704C17.6845 49.2504 18.661 50.2269 19.2712 50.7499C19.8989 51.2556 21.1195 52.0925 21.9738 52.5982C22.8282 53.1038 24.101 53.7141 24.7636 53.9582C25.4262 54.2023 26.577 54.5161 27.2918 54.6556C28.0067 54.8126 29.3144 54.9869 30.1688 55.0392C31.2673 55.1264 32.296 55.0741 33.5689 54.8823C34.5802 54.7254 36.1145 54.3592 36.9689 54.0628C37.8233 53.7664 39.0438 53.2607 39.6715 52.912C40.2992 52.5633 41.3977 51.831 42.1126 51.2905C42.8275 50.7499 43.8562 49.8258 44.3793 49.2679C44.9024 48.6925 45.7044 47.6812 46.1403 47.0186C46.5937 46.3386 47.1516 45.3796 47.4132 44.8914C47.6573 44.3857 48.0757 43.357 48.3199 42.6247C48.564 41.8749 48.8778 40.6893 49.0173 40.0093C49.1917 39.0503 49.2614 37.0626 49.2614 32.163C49.2614 26.8275 49.2091 25.2932 48.9824 24.0901C48.8255 23.2706 48.5117 22.05 48.2675 21.3875C48.0234 20.7249 47.6398 19.7833 47.3957 19.2951C47.1516 18.8243 46.7157 18.0397 46.4193 17.5515C46.1229 17.0807 45.5301 16.2438 45.0767 15.7207C44.6408 15.1976 43.8562 14.3607 43.3331 13.8725C42.81 13.3843 41.9382 12.6694 41.4151 12.3032C40.892 11.9196 40.0725 11.3965 39.5843 11.1176C39.1136 10.856 37.893 10.3852 36.8817 10.054C35.8704 9.74011 34.3361 9.39139 33.4817 9.28677C32.6273 9.18215 31.4417 9.11241 30.8663 9.12984C30.2909 9.12984 29.5585 9.18215 29.2273 9.23446Z" fill="url(#paint0_linear_1_83)"/>
<path fill-rule="evenodd" clip-rule="evenodd" d="M28.2857 13.7503C28.5647 13.4887 29.0878 13.1574 29.4714 13.018C29.855 12.8785 30.5175 12.7738 30.9534 12.7564C31.3893 12.7564 32.0345 12.8436 32.4006 12.9308C32.7494 13.0354 33.2899 13.3144 33.6037 13.5759C33.9002 13.8549 34.3012 14.378 34.4581 14.7616C34.6325 15.1452 34.7894 15.8252 34.7894 16.2785C34.7894 16.7667 34.6499 17.4119 34.4407 17.8129C34.2489 18.1965 33.8827 18.7196 33.6212 18.9637C33.3422 19.2078 32.854 19.5216 32.5227 19.6611C32.1914 19.8006 31.5463 19.9052 31.0929 19.9052C30.6222 19.9052 29.9596 19.7832 29.6109 19.6263C29.2447 19.4868 28.7216 19.1555 28.4601 18.8939C28.1811 18.6324 27.8149 18.1267 27.6231 17.778C27.4313 17.377 27.2918 16.7493 27.2918 16.2436C27.2918 15.7554 27.4139 15.1103 27.5534 14.7964C27.6929 14.5 28.0242 14.0293 28.2857 13.7503Z" fill="url(#paint1_linear_1_83)"/>
<path fill-rule="evenodd" clip-rule="evenodd" d="M21.381 23.5669C21.0497 23.0089 21.0323 22.6253 21.0323 18.894V14.8314L23.5431 14.936L23.5779 18.5104C23.5954 20.4807 23.6651 22.1197 23.7174 22.172C23.7872 22.2243 24.4323 22.3115 25.1646 22.3812C25.9144 22.4335 29.1401 22.451 32.3483 22.3987C37.4746 22.3115 38.2243 22.2766 38.4161 22.0151C38.573 21.8058 38.6254 20.8294 38.6254 15.0232H41.0664V19.0858C41.0838 23.0089 41.0664 23.1484 40.6828 23.7238C40.4561 24.0551 40.0028 24.4561 39.6715 24.6479C39.131 24.9269 38.6428 24.9618 32.3483 24.9618L32.4355 26.7926H35.8356C38.7997 26.7926 39.3054 26.8275 39.7587 27.1064C40.0551 27.2808 40.4736 27.6993 40.7177 28.048C41.153 28.6749 41.1536 28.7279 41.2404 36.7866L41.2408 36.8184H20.9277L21.102 28.6931L21.6251 28.0131C21.9215 27.647 22.4097 27.2285 22.7236 27.1064C23.1072 26.9495 24.2231 26.8798 26.3852 26.8798C28.6344 26.8798 29.5411 26.8275 29.698 26.6705C29.8201 26.5485 29.9073 26.1474 29.9073 25.7987C29.9073 25.4326 29.855 25.1013 29.7852 25.0664C29.698 25.0141 28.1113 24.9443 26.2457 24.9095C23.3164 24.8397 22.7584 24.7874 22.2877 24.5084C21.9738 24.3166 21.5554 23.8982 21.381 23.5669ZM32.5226 29.53C32.3308 29.6869 32.2785 30.2449 32.3134 31.9711L32.3483 34.2029H38.4509C38.4858 31.169 38.4858 30.1577 38.4509 30.0182C38.4335 29.8787 38.294 29.652 38.1371 29.53C37.9278 29.3731 37.0909 29.3208 35.295 29.3208C33.5862 29.3208 32.6795 29.3905 32.5226 29.53ZM23.6127 29.652C23.5081 29.8613 23.4209 30.8203 23.4384 31.9711C23.4384 33.3485 23.5081 34.0111 23.665 34.1506C23.8394 34.3249 24.6066 34.3598 26.7687 34.2901C28.3554 34.2377 29.6631 34.168 29.6805 34.1506C29.698 34.1331 29.7328 33.1393 29.7503 31.9362C29.7677 30.7331 29.7328 29.652 29.6631 29.5474C29.5933 29.3731 28.8087 29.3208 26.6815 29.3208C24.0312 29.3208 23.8045 29.3382 23.6127 29.652Z" fill="url(#paint2_linear_1_83)"/>
<path fill-rule="evenodd" clip-rule="evenodd" d="M22.2702 39.2245C22.8107 38.8409 23.0549 38.8234 26.8559 38.7363C29.0703 38.6839 32.6622 38.6142 34.8766 38.5968C38.7648 38.5619 38.9043 38.5619 39.6715 38.9629C40.2469 39.2419 40.5608 39.5732 40.8572 40.1311C41.2408 40.8809 41.2408 41.0553 41.1536 48.762H21.102L21.0671 44.8912C21.0148 41.2994 21.0497 40.9506 21.3635 40.3055C21.5553 39.9219 21.9738 39.4337 22.2702 39.2245ZM23.8569 41.4389C23.6128 41.5959 23.5779 41.8923 23.6477 43.88C23.6826 45.1354 23.7697 46.1293 23.8395 46.1118C23.9267 46.077 27.2395 46.0595 31.215 46.0595H38.451C38.451 42.1364 38.3987 41.5087 38.2243 41.4564C38.1197 41.4041 34.894 41.3518 31.0929 41.3169C26.3852 41.2646 24.0662 41.2995 23.8569 41.4389Z" fill="url(#paint3_linear_1_83)"/>
<path d="M67.0632 23.1163H60.2415V7.28136H67.0632C68.0444 7.29568 68.8608 7.41027 69.5126 7.62513C70.6227 7.99038 71.5215 8.66002 72.209 9.63404C72.7605 10.4218 73.1365 11.2741 73.337 12.1908C73.5375 13.1076 73.6378 13.9813 73.6378 14.8121C73.6378 16.9177 73.2153 18.701 72.3702 20.162C71.2243 22.1315 69.4553 23.1163 67.0632 23.1163ZM69.5233 11.3207C69.0148 10.4612 68.0086 10.0315 66.5046 10.0315H63.4536V20.3661H66.5046C68.0659 20.3661 69.1545 19.5962 69.7704 18.0564C70.107 17.2113 70.2753 16.2051 70.2753 15.0377C70.2753 13.4263 70.0246 12.1873 69.5233 11.3207Z" fill="url(#paint4_linear_1_83)"/>
<path d="M86.943 16.1979H79.2512V20.2694H88.0173V23.1163H76.0176V7.28136H87.6306V10.0852H79.2512V13.4477H86.943V16.1979Z" fill="url(#paint5_linear_1_83)"/>
<path d="M67.4714 40.1163H60.2952V24.2814H67.9871C69.9279 24.31 71.303 24.8722 72.1123 25.968C72.5993 26.6412 72.8428 27.4469 72.8428 28.3851C72.8428 29.352 72.5993 30.129 72.1123 30.7163C71.8402 31.0458 71.4391 31.3466 70.9091 31.6187C71.7184 31.9123 72.3272 32.3779 72.7354 33.0153C73.1508 33.6527 73.3585 34.4262 73.3585 35.3357C73.3585 36.2739 73.1222 37.1155 72.6495 37.8603C72.3487 38.3545 71.9727 38.7699 71.5215 39.1065C71.013 39.4932 70.4114 39.7582 69.7167 39.9014C69.0291 40.0447 68.2807 40.1163 67.4714 40.1163ZM67.3962 33.1442H63.4536V37.3661H67.3425C68.0372 37.3661 68.5779 37.273 68.9647 37.0868C69.6665 36.743 70.0175 36.0841 70.0175 35.1101C70.0175 34.2865 69.6773 33.7207 68.9969 33.4128C68.6173 33.2409 68.0838 33.1514 67.3962 33.1442ZM69.0399 30.1255C69.4696 29.8676 69.6844 29.4057 69.6844 28.7396C69.6844 28.002 69.398 27.5149 68.825 27.2786C68.3308 27.1139 67.7006 27.0315 66.9343 27.0315H63.4536V30.5229H67.3425C68.0372 30.5229 68.603 30.3904 69.0399 30.1255Z" fill="url(#paint6_linear_1_83)"/>
<path d="M86.943 33.1979H79.2512V37.2694H88.0173V40.1163H76.0176V24.2814H87.6306V27.0852H79.2512V30.4477H86.943V33.1979Z" fill="url(#paint7_linear_1_83)"/>
<path d="M101.548 38.9346C100.366 40.016 98.8552 40.5567 97.0146 40.5567C94.7372 40.5567 92.9467 39.8262 91.6432 38.3652C90.3398 36.897 89.688 34.8845 89.688 32.3277C89.688 29.5632 90.4293 27.4326 91.9118 25.9358C93.2009 24.6323 94.841 23.9806 96.832 23.9806C99.4962 23.9806 101.444 24.8543 102.676 26.6018C103.356 27.583 103.722 28.5677 103.772 29.5561H100.463C100.248 28.7969 99.9725 28.224 99.6359 27.8372C99.0343 27.1497 98.1426 26.8059 96.9609 26.8059C95.7577 26.8059 94.8088 27.2929 94.1141 28.2669C93.4194 29.2338 93.072 30.6053 93.072 32.3815C93.072 34.1576 93.4373 35.4897 94.1678 36.3778C94.9055 37.2587 95.8401 37.6992 96.9717 37.6992C98.1319 37.6992 99.0164 37.3196 99.6251 36.5604C99.9618 36.1522 100.241 35.5398 100.463 34.7234H103.74C103.453 36.4494 102.723 37.8531 101.548 38.9346Z" fill="url(#paint8_linear_1_83)"/>
<path d="M120.085 40.1163H115.831L110.943 33.1979L109.364 34.8201V40.1163H106.109V24.2814H109.364V30.8023L115.476 24.2814H119.752L113.263 30.8023L120.085 40.1163Z" fill="url(#paint9_linear_1_83)"/>
<path d="M132.756 33.1979H125.065V37.2694H133.831V40.1163H121.831V24.2814H133.444V27.0852H125.065V30.4477H132.756V33.1979Z" fill="url(#paint10_linear_1_83)"/>
<path d="M142.914 33.9069H139.498V40.1163H136.264V24.2814H144.031C145.141 24.3028 145.994 24.4389 146.588 24.6896C147.19 24.9403 147.698 25.3091 148.114 25.7961C148.457 26.1972 148.729 26.6412 148.93 27.1282C149.131 27.6152 149.231 28.1703 149.231 28.7933C149.231 29.5453 149.041 30.2866 148.661 31.0171C148.282 31.7405 147.655 32.2525 146.781 32.5533C147.512 32.847 148.028 33.2659 148.328 33.8102C148.636 34.3474 148.79 35.171 148.79 36.2811V37.3446C148.79 38.068 148.819 38.5586 148.876 38.8164C148.962 39.2246 149.163 39.5254 149.478 39.7188V40.1163H145.836C145.736 39.7654 145.664 39.4825 145.621 39.2676C145.535 38.8236 145.489 38.3688 145.482 37.9033L145.46 36.4315C145.446 35.4217 145.26 34.7485 144.901 34.4118C144.551 34.0752 143.888 33.9069 142.914 33.9069ZM144.923 31.0279C145.582 30.7271 145.911 30.1326 145.911 29.2445C145.911 28.2849 145.593 27.6403 144.955 27.3108C144.597 27.1246 144.06 27.0315 143.344 27.0315H139.498V31.2857H143.247C143.992 31.2857 144.551 31.1997 144.923 31.0279Z" fill="url(#paint11_linear_1_83)"/>
<path d="M71.414 55.9346C70.2323 57.016 68.7212 57.5567 66.8806 57.5567C64.6031 57.5567 62.8126 56.8262 61.5092 55.3652C60.2057 53.897 59.554 51.8845 59.554 49.3277C59.554 46.5633 60.2952 44.4326 61.7777 42.9358C63.0669 41.6323 64.7069 40.9806 66.6979 40.9806C69.3622 40.9806 71.3102 41.8543 72.542 43.6018C73.2224 44.583 73.5877 45.5677 73.6378 46.5561H70.329C70.1142 45.7969 69.8384 45.224 69.5018 44.8372C68.9002 44.1497 68.0086 43.8059 66.8269 43.8059C65.6237 43.8059 64.6747 44.2929 63.98 45.2669C63.2853 46.2338 62.9379 47.6053 62.9379 49.3815C62.9379 51.1576 63.3032 52.4897 64.0337 53.3778C64.7714 54.2587 65.706 54.6992 66.8376 54.6992C67.9978 54.6992 68.8823 54.3196 69.4911 53.5604C69.8277 53.1522 70.107 52.5398 70.329 51.7234H73.6056C73.3191 53.4494 72.5886 54.8531 71.414 55.9346Z" fill="url(#paint12_linear_1_83)"/>
<path d="M82.9252 57.5567C80.662 57.5567 78.9324 56.9408 77.7364 55.709C76.1321 54.1978 75.33 52.0206 75.33 49.1773C75.33 46.2768 76.1321 44.0996 77.7364 42.6457C78.9324 41.4138 80.662 40.7979 82.9252 40.7979C85.1884 40.7979 86.918 41.4138 88.114 42.6457C89.7111 44.0996 90.5096 46.2768 90.5096 49.1773C90.5096 52.0206 89.7111 54.1978 88.114 55.709C86.918 56.9408 85.1884 57.5567 82.9252 57.5567ZM86.0514 53.3026C86.8177 52.3357 87.2008 50.9606 87.2008 49.1773C87.2008 47.4012 86.8141 46.0297 86.0406 45.0628C85.2743 44.0888 84.2358 43.6018 82.9252 43.6018C81.6146 43.6018 80.5689 44.0852 79.7883 45.0521C79.0076 46.0189 78.6173 47.394 78.6173 49.1773C78.6173 50.9606 79.0076 52.3357 79.7883 53.3026C80.5689 54.2694 81.6146 54.7529 82.9252 54.7529C84.2358 54.7529 85.2779 54.2694 86.0514 53.3026Z" fill="url(#paint13_linear_1_83)"/>
<path d="M99.6466 57.1163H92.8249V41.2814H99.6466C100.628 41.2957 101.444 41.4103 102.096 41.6251C103.206 41.9904 104.105 42.66 104.792 43.634C105.344 44.4218 105.72 45.2741 105.92 46.1908C106.121 47.1076 106.221 47.9813 106.221 48.8121C106.221 50.9177 105.799 52.701 104.954 54.162C103.808 56.1315 102.039 57.1163 99.6466 57.1163ZM102.107 45.3207C101.598 44.4612 100.592 44.0315 99.088 44.0315H96.037V54.3661H99.088C100.649 54.3661 101.738 53.5962 102.354 52.0564C102.69 51.2113 102.859 50.2051 102.859 49.0377C102.859 47.4263 102.608 46.1873 102.107 45.3207Z" fill="url(#paint14_linear_1_83)"/>
<path d="M119.526 50.1979H111.835V54.2694H120.601V57.1163H108.601V41.2814H120.214V44.0852H111.835V47.4477H119.526V50.1979Z" fill="url(#paint15_linear_1_83)"/>
<defs>
<linearGradient id="paint0_linear_1_83" x1="11.5055" y1="6.67113" x2="44.8823" y2="20.6222" gradientUnits="userSpaceOnUse">
<stop stop-color="#411B0B"/>
<stop offset="0.466346" stop-color="#C78052"/>
<stop offset="1" stop-color="#411B0B"/>
</linearGradient>
<linearGradient id="paint1_linear_1_83" x1="11.5055" y1="6.67113" x2="44.8823" y2="20.6222" gradientUnits="userSpaceOnUse">
<stop stop-color="#411B0B"/>
<stop offset="0.466346" stop-color="#C78052"/>
<stop offset="1" stop-color="#411B0B"/>
</linearGradient>
<linearGradient id="paint2_linear_1_83" x1="11.5055" y1="6.67113" x2="44.8823" y2="20.6222" gradientUnits="userSpaceOnUse">
<stop stop-color="#411B0B"/>
<stop offset="0.466346" stop-color="#C78052"/>
<stop offset="1" stop-color="#411B0B"/>
</linearGradient>
<linearGradient id="paint3_linear_1_83" x1="11.5055" y1="6.67113" x2="44.8823" y2="20.6222" gradientUnits="userSpaceOnUse">
<stop stop-color="#411B0B"/>
<stop offset="0.466346" stop-color="#C78052"/>
<stop offset="1" stop-color="#411B0B"/>
</linearGradient>
<linearGradient id="paint4_linear_1_83" x1="60.9648" y1="7.11629" x2="106.964" y2="50.5348" gradientUnits="userSpaceOnUse">
<stop stop-color="#411B0B"/>
<stop offset="0.466346" stop-color="#C78052"/>
<stop offset="1" stop-color="#411B0B"/>
</linearGradient>
<linearGradient id="paint5_linear_1_83" x1="60.9648" y1="7.11629" x2="106.964" y2="50.5348" gradientUnits="userSpaceOnUse">
<stop stop-color="#411B0B"/>
<stop offset="0.466346" stop-color="#C78052"/>
<stop offset="1" stop-color="#411B0B"/>
</linearGradient>
<linearGradient id="paint6_linear_1_83" x1="60.9648" y1="7.11629" x2="106.964" y2="50.5348" gradientUnits="userSpaceOnUse">
<stop stop-color="#411B0B"/>
<stop offset="0.466346" stop-color="#C78052"/>
<stop offset="1" stop-color="#411B0B"/>
</linearGradient>
<linearGradient id="paint7_linear_1_83" x1="60.9648" y1="7.11629" x2="106.964" y2="50.5348" gradientUnits="userSpaceOnUse">
<stop stop-color="#411B0B"/>
<stop offset="0.466346" stop-color="#C78052"/>
<stop offset="1" stop-color="#411B0B"/>
</linearGradient>
<linearGradient id="paint8_linear_1_83" x1="60.9648" y1="7.11629" x2="106.964" y2="50.5348" gradientUnits="userSpaceOnUse">
<stop stop-color="#411B0B"/>
<stop offset="0.466346" stop-color="#C78052"/>
<stop offset="1" stop-color="#411B0B"/>
</linearGradient>
<linearGradient id="paint9_linear_1_83" x1="60.9648" y1="7.11629" x2="106.964" y2="50.5348" gradientUnits="userSpaceOnUse">
<stop stop-color="#411B0B"/>
<stop offset="0.466346" stop-color="#C78052"/>
<stop offset="1" stop-color="#411B0B"/>
</linearGradient>
<linearGradient id="paint10_linear_1_83" x1="60.9648" y1="7.11629" x2="106.964" y2="50.5348" gradientUnits="userSpaceOnUse">
<stop stop-color="#411B0B"/>
<stop offset="0.466346" stop-color="#C78052"/>
<stop offset="1" stop-color="#411B0B"/>
</linearGradient>
<linearGradient id="paint11_linear_1_83" x1="60.9648" y1="7.11629" x2="106.964" y2="50.5348" gradientUnits="userSpaceOnUse">
<stop stop-color="#411B0B"/>
<stop offset="0.466346" stop-color="#C78052"/>
<stop offset="1" stop-color="#411B0B"/>
</linearGradient>
<linearGradient id="paint12_linear_1_83" x1="60.9648" y1="7.11629" x2="106.964" y2="50.5348" gradientUnits="userSpaceOnUse">
<stop stop-color="#411B0B"/>
<stop offset="0.466346" stop-color="#C78052"/>
<stop offset="1" stop-color="#411B0B"/>
</linearGradient>
<linearGradient id="paint13_linear_1_83" x1="60.9648" y1="7.11629" x2="106.964" y2="50.5348" gradientUnits="userSpaceOnUse">
<stop stop-color="#411B0B"/>
<stop offset="0.466346" stop-color="#C78052"/>
<stop offset="1" stop-color="#411B0B"/>
</linearGradient>
<linearGradient id="paint14_linear_1_83" x1="60.9648" y1="7.11629" x2="106.964" y2="50.5348" gradientUnits="userSpaceOnUse">
<stop stop-color="#411B0B"/>
<stop offset="0.466346" stop-color="#C78052"/>
<stop offset="1" stop-color="#411B0B"/>
</linearGradient>
<linearGradient id="paint15_linear_1_83" x1="60.9648" y1="7.11629" x2="106.964" y2="50.5348" gradientUnits="userSpaceOnUse">
<stop stop-color="#411B0B"/>
<stop offset="0.466346" stop-color="#C78052"/>
<stop offset="1" stop-color="#411B0B"/>
</linearGradient>
</defs>
</svg>
